M48
INCH
T1C0.0150
T2C0.0197
T3C0.0276
T4C0.0315
T5C0.0354
T6C0.0394
T7C0.0433
T8C0.0598
T9C0.1181
%
G90
G05
T1
X3.97Y-3.04
X3.97Y-3.3
X4.1958Y-3.6812
X4.4Y-3.64
X4.4163Y-3.8199
X4.66Y-3.87
X4.82Y-4.23
X4.8765Y-3.7768
X5.06Y-3.77
X5.0639Y-2.07
X5.1249Y-2.5165
X5.2079Y-3.7844
X5.3203Y-2.8838
X5.59Y-4.27
X5.77Y-4.32
X5.8542Y-3.8145
X5.9925Y-3.6898
X6.2366Y-2.7
X6.27Y-2.78
X6.27Y-4.4
X6.43Y-2.84
X6.56Y-4.32
X6.5676Y-2.57
X6.7758Y-3.9418
X6.81Y-3.61
X6.83Y-3.7
X6.8885Y-4.73
X6.92Y-4.73
T2
X7.0014Y-1.84
X7.0274Y-1.7774
X7.0274Y-1.9026
X7.09Y-1.7514
X7.09Y-1.9286
X7.1526Y-1.7774
X7.1526Y-1.9026
X7.1786Y-1.84
X3.3814Y-1.78
X3.4074Y-1.7174
X3.4074Y-1.8426
X3.47Y-1.6914
X3.47Y-1.8686
X3.5326Y-1.7174
X3.5326Y-1.8426
X3.5586Y-1.78
X3.3814Y-5.4
X3.4074Y-5.3374
X3.4074Y-5.4626
X3.47Y-5.3114
X3.47Y-5.4886
X3.5326Y-5.3374
X3.5326Y-5.4626
X3.5586Y-5.4
X7.0014Y-5.34
X7.0274Y-5.2774
X7.0274Y-5.4026
X7.09Y-5.2514
X7.09Y-5.4286
X7.1526Y-5.2774
X7.1526Y-5.4026
X7.1786Y-5.34
T3
X6.26Y-5.12
X5.86Y-5.42
X6.16Y-5.12
X5.16Y-4.52
X6.86Y-5.02
X5.16Y-4.92
X5.36Y-4.92
X5.96Y-4.72
X6.16Y-5.42
X6.46Y-4.92
X5.86Y-4.92
X6.66Y-5.32
X5.96Y-5.02
X6.56Y-4.92
X5.66Y-4.92
X5.36Y-4.62
X6.06Y-4.92
X5.36Y-5.22
X5.56Y-4.62
X5.86Y-5.32
X5.96Y-5.12
X5.76Y-5.32
X5.76Y-5.22
X6.56Y-5.02
X6.06Y-5.12
X5.76Y-5.42
X5.96Y-4.52
X6.06Y-4.72
X5.06Y-5.42
X5.76Y-4.52
X6.46Y-5.32
X5.26Y-4.82
X5.06Y-4.52
X5.46Y-4.92
X5.06Y-4.82
X6.26Y-5.42
X6.76Y-5.12
X4.56Y-5.4598
X5.06Y-5.02
X6.66Y-5.22
X5.26Y-5.12
X6.86Y-5.32
X5.76Y-5.02
X5.06Y-4.72
X6.16Y-5.02
X5.86Y-5.22
X5.66Y-4.62
X5.36Y-5.32
X5.06Y-5.22
X6.26Y-4.92
X5.06Y-5.32
X6.56Y-4.82
X6.46Y-5.22
X5.36Y-5.42
X6.26Y-4.72
X6.76Y-4.82
X6.46Y-5.12
X5.56Y-4.82
X6.86Y-5.42
X5.56Y-4.92
X6.36Y-5.42
X6.36Y-4.82
X5.16Y-5.02
X6.36Y-5.02
X5.06Y-5.12
X3.67Y-5.32
X3.97Y-5.32
X5.16Y-5.12
X3.7102Y-5.46
X5.46Y-4.72
X6.06Y-4.82
X5.56Y-5.12
X5.86Y-4.62
X5.56Y-5.32
X5.26Y-5.22
X6.16Y-4.92
X5.46Y-5.12
X6.76Y-4.92
X6.56Y-5.12
X5.96Y-5.42
X5.26Y-4.52
X6.36Y-5.22
X5.46Y-5.42
X5.86Y-4.52
X5.76Y-4.82
X5.36Y-4.82
X4.26Y-4.65
X4.26Y-4.95
X6.46Y-5.42
X6.36Y-5.12
X4.73Y-5.4598
X5.26Y-5.02
X6.36Y-4.92
X3.88Y-5.46
X5.76Y-4.92
X6.35Y-1.83
X6.65Y-1.83
X5.36Y-4.52
X5.56Y-4.72
X6.16Y-4.72
X5.66Y-5.12
X5.16Y-4.72
X5.46Y-5.32
X5.46Y-5.22
X6.16Y-4.82
X5.16Y-5.42
X5.56Y-4.52
X6.16Y-5.32
X6.66Y-5.02
X6.26Y-5.22
X5.56Y-5.42
X5.86Y-4.82
X5.46Y-4.82
X4.13Y-4.65
X4.13Y-4.95
X6.56Y-5.42
X6.86Y-5.12
X5.46Y-5.02
X6.66Y-5.12
X5.96Y-4.92
X5.26Y-4.72
X5.66Y-4.72
X6.26Y-4.82
X5.96Y-5.22
X5.76Y-4.62
X5.96Y-5.32
X5.16Y-5.32
X5.26Y-5.42
X6.36Y-5.32
X6.76Y-5.02
X5.46Y-4.52
X6.16Y-5.22
X5.66Y-4.52
X5.16Y-4.82
X5.96Y-4.82
X5.86Y-4.72
X6.66Y-5.42
X6.76Y-5.32
X6.76Y-5.42
X6.56Y-5.32
X5.66Y-5.02
X6.46Y-5.02
X5.56Y-5.02
X5.16Y-4.62
X5.26Y-4.62
X6.06Y-5.02
X5.66Y-5.22
X5.96Y-4.62
X6.26Y-5.02
X5.86Y-5.12
X6.06Y-5.22
X6.66Y-4.82
X6.56Y-5.22
X6.66Y-4.92
X6.06Y-5.32
X5.26Y-4.92
X5.06Y-4.92
X5.66Y-4.82
X6.06Y-5.42
X6.86Y-5.22
X5.36Y-5.12
X6.76Y-5.22
X5.86Y-5.02
X6.46Y-4.82
X5.36Y-5.02
X5.36Y-4.72
X5.56Y-5.22
X5.46Y-4.62
X5.26Y-5.32
X5.76Y-5.12
X5.76Y-4.72
X5.66Y-5.32
X5.16Y-5.22
X6.26Y-5.32
X5.66Y-5.42
X5.06Y-4.62
T4
X5.23Y-2.39
X5.23Y-2.49
X5.23Y-2.59
X5.23Y-2.69
X5.23Y-2.79
X5.23Y-2.89
X5.23Y-2.99
X5.23Y-3.09
X5.23Y-3.19
X5.23Y-3.29
X5.23Y-3.39
X5.23Y-3.49
X5.23Y-3.59
X5.23Y-3.69
X5.83Y-2.39
X5.83Y-2.49
X5.83Y-2.59
X5.83Y-2.69
X5.83Y-2.79
X5.83Y-2.89
X5.83Y-2.99
X5.83Y-3.09
X5.83Y-3.19
X5.83Y-3.29
X5.83Y-3.39
X5.83Y-3.49
X5.83Y-3.59
X5.83Y-3.69
X3.86Y-2.26
X4.0569Y-2.26
X4.7431Y-2.26
X4.94Y-2.26
X4.34Y-2.39
X4.34Y-2.49
X4.34Y-2.59
X4.34Y-2.69
X4.34Y-2.79
X4.34Y-2.89
X4.34Y-2.99
X4.34Y-3.09
X4.34Y-3.19
X4.34Y-3.29
X4.34Y-3.39
X4.34Y-3.49
X4.34Y-3.59
X4.34Y-3.69
X4.94Y-2.39
X4.94Y-2.49
X4.94Y-2.59
X4.94Y-2.69
X4.94Y-2.79
X4.94Y-2.89
X4.94Y-2.99
X4.94Y-3.09
X4.94Y-3.19
X4.94Y-3.29
X4.94Y-3.39
X4.94Y-3.49
X4.94Y-3.59
X4.94Y-3.69
X4.64Y-3.95
X4.64Y-4.25
X4.94Y-3.95
X4.94Y-4.25
X4.34Y-3.95
X4.34Y-4.25
X4.94Y-3.95
X4.94Y-4.25
X5.6331Y-2.26
X5.83Y-2.26
X6.5231Y-2.26
X6.72Y-2.26
X6.12Y-2.39
X6.12Y-2.49
X6.12Y-2.59
X6.12Y-2.69
X6.12Y-2.79
X6.12Y-2.89
X6.12Y-2.99
X6.12Y-3.09
X6.12Y-3.19
X6.12Y-3.29
X6.12Y-3.39
X6.12Y-3.49
X6.12Y-3.59
X6.12Y-3.69
X6.12Y-3.79
X6.12Y-3.89
X6.12Y-3.99
X6.12Y-4.09
X6.12Y-4.19
X6.12Y-4.29
X6.72Y-2.39
X6.72Y-2.49
X6.72Y-2.59
X6.72Y-2.69
X6.72Y-2.79
X6.72Y-2.89
X6.72Y-2.99
X6.72Y-3.09
X6.72Y-3.19
X6.72Y-3.29
X6.72Y-3.39
X6.72Y-3.49
X6.72Y-3.59
X6.72Y-3.69
X6.72Y-3.79
X6.72Y-3.89
X6.72Y-3.99
X6.72Y-4.09
X6.72Y-4.19
X6.72Y-4.29
X3.6558Y-4.5477
X3.6558Y-5.0123
X4.02Y-4.6835
X4.02Y-4.8765
X4.5331Y-5.24
X4.73Y-5.24
X4.1Y-5.11
X4.2969Y-5.11
X3.46Y-2.39
X3.46Y-2.49
X3.46Y-2.59
X3.46Y-2.69
X3.46Y-2.79
X3.46Y-2.89
X3.46Y-2.99
X3.46Y-3.09
X3.46Y-3.19
X3.46Y-3.29
X3.46Y-3.39
X3.46Y-3.49
X3.46Y-3.59
X3.46Y-3.69
X3.46Y-3.79
X3.46Y-3.89
X3.46Y-3.99
X3.46Y-4.09
X3.46Y-4.19
X3.46Y-4.29
X4.06Y-2.39
X4.06Y-2.49
X4.06Y-2.59
X4.06Y-2.69
X4.06Y-2.79
X4.06Y-2.89
X4.06Y-2.99
X4.06Y-3.09
X4.06Y-3.19
X4.06Y-3.29
X4.06Y-3.39
X4.06Y-3.49
X4.06Y-3.59
X4.06Y-3.69
X4.06Y-3.79
X4.06Y-3.89
X4.06Y-3.99
X4.06Y-4.09
X4.06Y-4.19
X4.06Y-4.29
X6.12Y-4.52
X6.22Y-4.52
X6.32Y-4.52
X6.42Y-4.52
X6.52Y-4.52
X6.62Y-4.52
X6.72Y-4.52
X3.7716Y-5.14
X3.87Y-5.14
X4.1031Y-4.51
X4.3Y-4.51
X6.91Y-2.13
X7.0084Y-2.13
X4.49Y-4.49
X4.49Y-4.59
X4.49Y-4.69
X4.49Y-4.79
X4.49Y-4.89
X4.49Y-4.99
X4.49Y-5.09
X4.79Y-4.49
X4.79Y-4.59
X4.79Y-4.69
X4.79Y-4.79
X4.79Y-4.89
X4.79Y-4.99
X4.79Y-5.09
T5
X5.66Y-1.85
X5.66Y-1.95
X6.36Y-1.98
X6.66Y-1.98
T6
X5.34Y-4.19
X5.44Y-4.19
X5.54Y-4.19
X5.64Y-4.19
X5.74Y-4.19
X7.0Y-2.39
X7.0Y-2.49
X7.0Y-2.59
X7.0Y-2.69
X7.0Y-2.79
X7.0Y-2.89
X7.0Y-2.99
X7.0Y-3.09
X7.0Y-3.19
X7.0Y-3.29
X7.0Y-3.39
X7.0Y-3.49
X7.0Y-3.59
X7.0Y-3.69
X7.0Y-3.79
X7.0Y-3.89
X7.0Y-3.99
X7.0Y-4.09
X7.0Y-4.19
X7.0Y-4.29
X7.0Y-4.39
X7.0Y-4.49
X7.0Y-4.59
X7.0Y-4.69
X7.0Y-4.79
X7.1Y-2.39
X7.1Y-2.49
X7.1Y-2.59
X7.1Y-2.69
X7.1Y-2.79
X7.1Y-2.89
X7.1Y-2.99
X7.1Y-3.09
X7.1Y-3.19
X7.1Y-3.29
X7.1Y-3.39
X7.1Y-3.49
X7.1Y-3.59
X7.1Y-3.69
X7.1Y-3.79
X7.1Y-3.89
X7.1Y-3.99
X7.1Y-4.09
X7.1Y-4.19
X7.1Y-4.29
X7.1Y-4.39
X7.1Y-4.49
X7.1Y-4.59
X7.1Y-4.69
X7.1Y-4.79
X3.83Y-1.85
X3.83Y-1.95
X3.93Y-1.85
X3.93Y-1.95
X4.03Y-1.85
X4.03Y-1.95
X4.13Y-1.85
X4.13Y-1.95
X4.23Y-1.85
X4.23Y-1.95
X4.33Y-1.85
X4.33Y-1.95
X4.43Y-1.85
X4.43Y-1.95
X4.53Y-1.85
X4.53Y-1.95
X4.63Y-1.85
X4.63Y-1.95
X4.73Y-1.85
X4.73Y-1.95
X4.83Y-1.85
X4.83Y-1.95
X4.93Y-1.85
X4.93Y-1.95
X5.03Y-1.85
X5.03Y-1.95
X5.13Y-1.85
X5.13Y-1.95
X5.23Y-1.85
X5.23Y-1.95
X5.33Y-1.85
X5.33Y-1.95
X5.43Y-1.85
X5.43Y-1.95
T7
X4.092Y-5.2428
X4.092Y-5.42
X4.348Y-5.2428
X4.348Y-5.42
T8
X5.88Y-1.88
X6.08Y-1.88
T9
X7.09Y-1.84
X3.47Y-1.78
X3.47Y-5.4
X7.09Y-5.34
T0
M30
