M48
INCH,TZ
T1C0.0150
T2C0.0197
T3C0.0276
T4C0.0315
T5C0.0354
T6C0.0394
T7C0.0433
T8C0.0598
T9C0.1181
%
G90
G05
T1
X38100Y-37500
X38900Y-35900
X39200Y-33400
X39700Y-30400
X39700Y-32900
X41958Y-36812
X44000Y-36400
X44163Y-38199
X46600Y-38700
X48200Y-42300
X48765Y-37768
X50600Y-37700
X50639Y-20700
X51249Y-25165
X52079Y-37844
X53203Y-28838
X54100Y-36900
X55900Y-42700
X56400Y-36900
X57700Y-41000
X57700Y-43200
X58542Y-38145
X59300Y-42800
X59925Y-36898
X62366Y-27000
X62700Y-27800
X62700Y-44000
X64300Y-28400
X65600Y-43200
X65676Y-25700
X67758Y-39418
X68100Y-36100
X68300Y-37000
X68885Y-47300
X69200Y-47300
T2
X33814Y-54000
X34074Y-53374
X34074Y-54626
X34700Y-53114
X34700Y-54886
X35326Y-53374
X35326Y-54626
X35586Y-54000
X70014Y-53400
X70274Y-52774
X70274Y-54026
X70900Y-52514
X70900Y-54286
X71526Y-52774
X71526Y-54026
X71786Y-53400
X70014Y-18400
X70274Y-17774
X70274Y-19026
X70900Y-17514
X70900Y-19286
X71526Y-17774
X71526Y-19026
X71786Y-18400
X33814Y-17800
X34074Y-17174
X34074Y-18426
X34700Y-16914
X34700Y-18686
X35326Y-17174
X35326Y-18426
X35586Y-17800
T3
X59600Y-46200
X61600Y-53200
X53600Y-47200
X65600Y-52200
X57600Y-46200
X56600Y-52200
X54600Y-54200
X63600Y-52200
X65600Y-54200
X55600Y-50200
X53600Y-52200
X61600Y-51200
X66600Y-54200
X58600Y-49200
X62600Y-50200
X63600Y-51200
X64600Y-49200
X56600Y-51200
X36700Y-53200
X39700Y-53200
X51600Y-49200
X56600Y-48200
X42600Y-46500
X42600Y-49500
X55600Y-48200
X51600Y-48200
X51600Y-54200
X59600Y-45200
X63600Y-53200
X54600Y-45200
X50600Y-54200
X50600Y-47200
X50600Y-53200
X55600Y-47200
X52600Y-53200
X51600Y-47200
X65600Y-51200
X55600Y-54200
X64600Y-50200
X51600Y-52200
X56600Y-54200
X60600Y-50200
X52600Y-52200
X59600Y-51200
X57600Y-54200
X52600Y-49200
X52600Y-50200
X58600Y-51200
X63600Y-49200
X60600Y-51200
X59600Y-49200
X59600Y-48200
X60600Y-48200
X47300Y-54598
X50600Y-49200
X51600Y-45200
X69600Y-51200
X34300Y-51400
X54600Y-47200
X56600Y-53200
X56600Y-46200
X55600Y-53200
X52600Y-47200
X67600Y-51200
X58600Y-54200
X68600Y-49200
X54600Y-52200
X63600Y-54200
X58600Y-50200
X57600Y-52200
X66600Y-50200
X59600Y-54200
X56600Y-49200
X54600Y-50200
X55600Y-51200
X62600Y-49200
X62600Y-51200
X61600Y-49200
X64600Y-48200
X61600Y-47200
X35698Y-51400
X69600Y-50200
X56600Y-45200
X68600Y-52200
X56600Y-47200
X54600Y-53200
X58600Y-47200
X59600Y-53200
X58600Y-46200
X60600Y-52200
X61600Y-54200
X50600Y-50200
X55600Y-52200
X51600Y-46200
X59600Y-50200
X67600Y-50200
X53600Y-54200
X53600Y-49200
X57600Y-50200
X51600Y-51200
X45600Y-54598
X66600Y-49200
X55600Y-49200
X38800Y-54600
X58600Y-48200
X62600Y-47200
X66600Y-53200
X65600Y-53200
X51600Y-53200
X57600Y-47200
X58600Y-53200
X59600Y-47200
X57600Y-53200
X68600Y-51200
X67600Y-54200
X51600Y-50200
X66600Y-51200
X60600Y-54200
X61600Y-50200
X68600Y-50200
X65600Y-49200
X67600Y-49200
X64600Y-51200
X65600Y-48200
X54600Y-48200
X50600Y-48200
X53600Y-45200
X67600Y-53200
X50600Y-45200
X64600Y-53200
X67600Y-52200
X60600Y-47200
X64600Y-52200
X53600Y-46200
X62600Y-53200
X58600Y-52200
X68600Y-54200
X56600Y-50200
X61600Y-52200
X62600Y-54200
X63600Y-50200
X57600Y-51200
X54600Y-49200
X52600Y-51200
X37102Y-54600
X60600Y-49200
X57600Y-48200
X61600Y-48200
X41300Y-46500
X41300Y-49500
X62600Y-48200
X55600Y-45200
X52600Y-54200
X68600Y-53200
X57600Y-45200
X52600Y-45200
X60600Y-53200
X55600Y-46200
X53600Y-53200
X54600Y-46200
X59600Y-52200
X66600Y-52200
X62600Y-52200
X52600Y-46200
X53600Y-50200
X50600Y-52200
X53600Y-51200
X64600Y-54200
X65600Y-50200
X50600Y-51200
X57600Y-49200
X54600Y-51200
X66600Y-48200
X52600Y-48200
X63500Y-18300
X66500Y-18300
X53600Y-48200
X63600Y-48200
X35900Y-44419
X38900Y-44419
X50600Y-46200
X67600Y-48200
X58600Y-45200
T4
X43400Y-23900
X43400Y-24900
X43400Y-25900
X43400Y-26900
X43400Y-27900
X43400Y-28900
X43400Y-29900
X43400Y-30900
X43400Y-31900
X43400Y-32900
X43400Y-33900
X43400Y-34900
X43400Y-35900
X43400Y-36900
X49400Y-23900
X49400Y-24900
X49400Y-25900
X49400Y-26900
X49400Y-27900
X49400Y-28900
X49400Y-29900
X49400Y-30900
X49400Y-31900
X49400Y-32900
X49400Y-33900
X49400Y-34900
X49400Y-35900
X49400Y-36900
X52300Y-23900
X52300Y-24900
X52300Y-25900
X52300Y-26900
X52300Y-27900
X52300Y-28900
X52300Y-29900
X52300Y-30900
X52300Y-31900
X52300Y-32900
X52300Y-33900
X52300Y-34900
X52300Y-35900
X52300Y-36900
X58300Y-23900
X58300Y-24900
X58300Y-25900
X58300Y-26900
X58300Y-27900
X58300Y-28900
X58300Y-29900
X58300Y-30900
X58300Y-31900
X58300Y-32900
X58300Y-33900
X58300Y-34900
X58300Y-35900
X58300Y-36900
X47431Y-22600
X49400Y-22600
X34600Y-23900
X34600Y-24900
X34600Y-25900
X34600Y-26900
X34600Y-27900
X34600Y-28900
X34600Y-29900
X34600Y-30900
X34600Y-31900
X34600Y-32900
X34600Y-33900
X34600Y-34900
X34600Y-35900
X34600Y-36900
X34600Y-37900
X34600Y-38900
X34600Y-39900
X34600Y-40900
X34600Y-41900
X34600Y-42900
X40600Y-23900
X40600Y-24900
X40600Y-25900
X40600Y-26900
X40600Y-27900
X40600Y-28900
X40600Y-29900
X40600Y-30900
X40600Y-31900
X40600Y-32900
X40600Y-33900
X40600Y-34900
X40600Y-35900
X40600Y-36900
X40600Y-37900
X40600Y-38900
X40600Y-39900
X40600Y-40900
X40600Y-41900
X40600Y-42900
X36558Y-45477
X36558Y-50123
X40200Y-46835
X40200Y-48765
X45331Y-52400
X47300Y-52400
X43400Y-39500
X43400Y-42500
X49400Y-39500
X49400Y-42500
X69100Y-21300
X70084Y-21300
X41031Y-45100
X43000Y-45100
X44900Y-44900
X44900Y-45900
X44900Y-46900
X44900Y-47900
X44900Y-48900
X44900Y-49900
X44900Y-50900
X47900Y-44900
X47900Y-45900
X47900Y-46900
X47900Y-47900
X47900Y-48900
X47900Y-49900
X47900Y-50900
X61200Y-23900
X61200Y-24900
X61200Y-25900
X61200Y-26900
X61200Y-27900
X61200Y-28900
X61200Y-29900
X61200Y-30900
X61200Y-31900
X61200Y-32900
X61200Y-33900
X61200Y-34900
X61200Y-35900
X61200Y-36900
X61200Y-37900
X61200Y-38900
X61200Y-39900
X61200Y-40900
X61200Y-41900
X61200Y-42900
X67200Y-23900
X67200Y-24900
X67200Y-25900
X67200Y-26900
X67200Y-27900
X67200Y-28900
X67200Y-29900
X67200Y-30900
X67200Y-31900
X67200Y-32900
X67200Y-33900
X67200Y-34900
X67200Y-35900
X67200Y-36900
X67200Y-37900
X67200Y-38900
X67200Y-39900
X67200Y-40900
X67200Y-41900
X67200Y-42900
X61200Y-45200
X62200Y-45200
X63200Y-45200
X64200Y-45200
X65200Y-45200
X66200Y-45200
X67200Y-45200
X46400Y-39500
X46400Y-42500
X49400Y-39500
X49400Y-42500
X38600Y-22600
X40569Y-22600
X37716Y-51400
X38700Y-51400
X65231Y-22600
X67200Y-22600
X41000Y-51100
X42969Y-51100
X56331Y-22600
X58300Y-22600
T5
X63600Y-19800
X66600Y-19800
X56600Y-18500
X56600Y-19500
T6
X53400Y-41900
X54400Y-41900
X55400Y-41900
X56400Y-41900
X57400Y-41900
X38300Y-18500
X38300Y-19500
X39300Y-18500
X39300Y-19500
X40300Y-18500
X40300Y-19500
X41300Y-18500
X41300Y-19500
X42300Y-18500
X42300Y-19500
X43300Y-18500
X43300Y-19500
X44300Y-18500
X44300Y-19500
X45300Y-18500
X45300Y-19500
X46300Y-18500
X46300Y-19500
X47300Y-18500
X47300Y-19500
X48300Y-18500
X48300Y-19500
X49300Y-18500
X49300Y-19500
X50300Y-18500
X50300Y-19500
X51300Y-18500
X51300Y-19500
X52300Y-18500
X52300Y-19500
X53300Y-18500
X53300Y-19500
X54300Y-18500
X54300Y-19500
X70000Y-23900
X70000Y-24900
X70000Y-25900
X70000Y-26900
X70000Y-27900
X70000Y-28900
X70000Y-29900
X70000Y-30900
X70000Y-31900
X70000Y-32900
X70000Y-33900
X70000Y-34900
X70000Y-35900
X70000Y-36900
X70000Y-37900
X70000Y-38900
X70000Y-39900
X70000Y-40900
X70000Y-41900
X70000Y-42900
X70000Y-43900
X70000Y-44900
X70000Y-45900
X70000Y-46900
X70000Y-47900
X71000Y-23900
X71000Y-24900
X71000Y-25900
X71000Y-26900
X71000Y-27900
X71000Y-28900
X71000Y-29900
X71000Y-30900
X71000Y-31900
X71000Y-32900
X71000Y-33900
X71000Y-34900
X71000Y-35900
X71000Y-36900
X71000Y-37900
X71000Y-38900
X71000Y-39900
X71000Y-40900
X71000Y-41900
X71000Y-42900
X71000Y-43900
X71000Y-44900
X71000Y-45900
X71000Y-46900
X71000Y-47900
T7
X40920Y-52428
X40920Y-54200
X43480Y-52428
X43480Y-54200
T8
X58800Y-19100
X60800Y-19100
T9
X34700Y-54000
X70900Y-53400
X70900Y-18400
X34700Y-17800
T0
M30
