G04 #@! TF.GenerationSoftware,KiCad,Pcbnew,(5.1.5)-3*
G04 #@! TF.CreationDate,2020-12-26T21:56:58-08:00*
G04 #@! TF.ProjectId,mgh80,6d676838-302e-46b6-9963-61645f706362,rev?*
G04 #@! TF.SameCoordinates,Original*
G04 #@! TF.FileFunction,Legend,Bot*
G04 #@! TF.FilePolarity,Positive*
%FSLAX46Y46*%
G04 Gerber Fmt 4.6, Leading zero omitted, Abs format (unit mm)*
G04 Created by KiCad (PCBNEW (5.1.5)-3) date 2020-12-26 21:56:58*
%MOMM*%
%LPD*%
G04 APERTURE LIST*
%ADD10C,0.200000*%
%ADD11C,0.177800*%
%ADD12C,0.228600*%
%ADD13C,0.150000*%
%ADD14C,0.120000*%
G04 APERTURE END LIST*
D10*
X150368000Y-114808000D02*
X149860000Y-114808000D01*
X147828000Y-114808000D02*
X147320000Y-114808000D01*
X145288000Y-114808000D02*
X144780000Y-114808000D01*
X142748000Y-114808000D02*
X142240000Y-114808000D01*
X140208000Y-114808000D02*
X139700000Y-114808000D01*
X137668000Y-114808000D02*
X137160000Y-114808000D01*
X135128000Y-114808000D02*
X134620000Y-114808000D01*
X132588000Y-114808000D02*
X132080000Y-114808000D01*
D11*
X126576666Y-114251619D02*
X126238000Y-115267619D01*
X125899333Y-114251619D01*
X124980095Y-115170857D02*
X125028476Y-115219238D01*
X125173619Y-115267619D01*
X125270380Y-115267619D01*
X125415523Y-115219238D01*
X125512285Y-115122476D01*
X125560666Y-115025714D01*
X125609047Y-114832190D01*
X125609047Y-114687047D01*
X125560666Y-114493523D01*
X125512285Y-114396761D01*
X125415523Y-114300000D01*
X125270380Y-114251619D01*
X125173619Y-114251619D01*
X125028476Y-114300000D01*
X124980095Y-114348380D01*
X123964095Y-115170857D02*
X124012476Y-115219238D01*
X124157619Y-115267619D01*
X124254380Y-115267619D01*
X124399523Y-115219238D01*
X124496285Y-115122476D01*
X124544666Y-115025714D01*
X124593047Y-114832190D01*
X124593047Y-114687047D01*
X124544666Y-114493523D01*
X124496285Y-114396761D01*
X124399523Y-114300000D01*
X124254380Y-114251619D01*
X124157619Y-114251619D01*
X124012476Y-114300000D01*
X123964095Y-114348380D01*
D12*
X130048000Y-114808000D02*
X129540000Y-114808000D01*
D10*
X127254000Y-114808000D02*
X126746000Y-114808000D01*
D11*
X125742095Y-137160000D02*
X125838857Y-137111619D01*
X125984000Y-137111619D01*
X126129142Y-137160000D01*
X126225904Y-137256761D01*
X126274285Y-137353523D01*
X126322666Y-137547047D01*
X126322666Y-137692190D01*
X126274285Y-137885714D01*
X126225904Y-137982476D01*
X126129142Y-138079238D01*
X125984000Y-138127619D01*
X125887238Y-138127619D01*
X125742095Y-138079238D01*
X125693714Y-138030857D01*
X125693714Y-137692190D01*
X125887238Y-137692190D01*
X125258285Y-138127619D02*
X125258285Y-137111619D01*
X124677714Y-138127619D01*
X124677714Y-137111619D01*
X124193904Y-138127619D02*
X124193904Y-137111619D01*
X123952000Y-137111619D01*
X123806857Y-137160000D01*
X123710095Y-137256761D01*
X123661714Y-137353523D01*
X123613333Y-137547047D01*
X123613333Y-137692190D01*
X123661714Y-137885714D01*
X123710095Y-137982476D01*
X123806857Y-138079238D01*
X123952000Y-138127619D01*
X124193904Y-138127619D01*
D10*
X130048000Y-137668000D02*
X129540000Y-137668000D01*
X168148000Y-137668000D02*
X167640000Y-137668000D01*
X147828000Y-137668000D02*
X147320000Y-137668000D01*
X165608000Y-137668000D02*
X165100000Y-137668000D01*
X152908000Y-137668000D02*
X152400000Y-137668000D01*
X160528000Y-137668000D02*
X160020000Y-137668000D01*
X145288000Y-137668000D02*
X144780000Y-137668000D01*
X140208000Y-137668000D02*
X139700000Y-137668000D01*
X173228000Y-137668000D02*
X172720000Y-137668000D01*
X163068000Y-137668000D02*
X162560000Y-137668000D01*
X170688000Y-137668000D02*
X170180000Y-137668000D01*
X150368000Y-137668000D02*
X149860000Y-137668000D01*
X142748000Y-137668000D02*
X142240000Y-137668000D01*
X135128000Y-137668000D02*
X134620000Y-137668000D01*
X157988000Y-137668000D02*
X157480000Y-137668000D01*
X155448000Y-137668000D02*
X154940000Y-137668000D01*
X137668000Y-137668000D02*
X137160000Y-137668000D01*
X132588000Y-137668000D02*
X132080000Y-137668000D01*
X127254000Y-137668000D02*
X126746000Y-137668000D01*
D13*
X135230761Y-111958380D02*
X135564095Y-111482190D01*
X135802190Y-111958380D02*
X135802190Y-110958380D01*
X135421238Y-110958380D01*
X135326000Y-111006000D01*
X135278380Y-111053619D01*
X135230761Y-111148857D01*
X135230761Y-111291714D01*
X135278380Y-111386952D01*
X135326000Y-111434571D01*
X135421238Y-111482190D01*
X135802190Y-111482190D01*
X134849809Y-111672666D02*
X134373619Y-111672666D01*
X134945047Y-111958380D02*
X134611714Y-110958380D01*
X134278380Y-111958380D01*
X133945047Y-111958380D02*
X133945047Y-110958380D01*
X133611714Y-111672666D01*
X133278380Y-110958380D01*
X133278380Y-111958380D01*
X133040285Y-112053619D02*
X132278380Y-112053619D01*
X131468857Y-111863142D02*
X131516476Y-111910761D01*
X131659333Y-111958380D01*
X131754571Y-111958380D01*
X131897428Y-111910761D01*
X131992666Y-111815523D01*
X132040285Y-111720285D01*
X132087904Y-111529809D01*
X132087904Y-111386952D01*
X132040285Y-111196476D01*
X131992666Y-111101238D01*
X131897428Y-111006000D01*
X131754571Y-110958380D01*
X131659333Y-110958380D01*
X131516476Y-111006000D01*
X131468857Y-111053619D01*
X131087904Y-111910761D02*
X130945047Y-111958380D01*
X130706952Y-111958380D01*
X130611714Y-111910761D01*
X130564095Y-111863142D01*
X130516476Y-111767904D01*
X130516476Y-111672666D01*
X130564095Y-111577428D01*
X130611714Y-111529809D01*
X130706952Y-111482190D01*
X130897428Y-111434571D01*
X130992666Y-111386952D01*
X131040285Y-111339333D01*
X131087904Y-111244095D01*
X131087904Y-111148857D01*
X131040285Y-111053619D01*
X130992666Y-111006000D01*
X130897428Y-110958380D01*
X130659333Y-110958380D01*
X130516476Y-111006000D01*
X130326000Y-112053619D02*
X129564095Y-112053619D01*
X129326000Y-111434571D02*
X128992666Y-111434571D01*
X128849809Y-111958380D02*
X129326000Y-111958380D01*
X129326000Y-110958380D01*
X128849809Y-110958380D01*
X128421238Y-111958380D02*
X128421238Y-110958380D01*
X127849809Y-111958380D01*
X127849809Y-110958380D01*
X145486000Y-98496380D02*
X145819333Y-98020190D01*
X146057428Y-98496380D02*
X146057428Y-97496380D01*
X145676476Y-97496380D01*
X145581238Y-97544000D01*
X145533619Y-97591619D01*
X145486000Y-97686857D01*
X145486000Y-97829714D01*
X145533619Y-97924952D01*
X145581238Y-97972571D01*
X145676476Y-98020190D01*
X146057428Y-98020190D01*
X144866952Y-97496380D02*
X144676476Y-97496380D01*
X144581238Y-97544000D01*
X144486000Y-97639238D01*
X144438380Y-97829714D01*
X144438380Y-98163047D01*
X144486000Y-98353523D01*
X144581238Y-98448761D01*
X144676476Y-98496380D01*
X144866952Y-98496380D01*
X144962190Y-98448761D01*
X145057428Y-98353523D01*
X145105047Y-98163047D01*
X145105047Y-97829714D01*
X145057428Y-97639238D01*
X144962190Y-97544000D01*
X144866952Y-97496380D01*
X144009809Y-98496380D02*
X144009809Y-97496380D01*
X143676476Y-98210666D01*
X143343142Y-97496380D01*
X143343142Y-98496380D01*
X143105047Y-98591619D02*
X142343142Y-98591619D01*
X141533619Y-98401142D02*
X141581238Y-98448761D01*
X141724095Y-98496380D01*
X141819333Y-98496380D01*
X141962190Y-98448761D01*
X142057428Y-98353523D01*
X142105047Y-98258285D01*
X142152666Y-98067809D01*
X142152666Y-97924952D01*
X142105047Y-97734476D01*
X142057428Y-97639238D01*
X141962190Y-97544000D01*
X141819333Y-97496380D01*
X141724095Y-97496380D01*
X141581238Y-97544000D01*
X141533619Y-97591619D01*
X141152666Y-98448761D02*
X141009809Y-98496380D01*
X140771714Y-98496380D01*
X140676476Y-98448761D01*
X140628857Y-98401142D01*
X140581238Y-98305904D01*
X140581238Y-98210666D01*
X140628857Y-98115428D01*
X140676476Y-98067809D01*
X140771714Y-98020190D01*
X140962190Y-97972571D01*
X141057428Y-97924952D01*
X141105047Y-97877333D01*
X141152666Y-97782095D01*
X141152666Y-97686857D01*
X141105047Y-97591619D01*
X141057428Y-97544000D01*
X140962190Y-97496380D01*
X140724095Y-97496380D01*
X140581238Y-97544000D01*
X140390761Y-98591619D02*
X139628857Y-98591619D01*
X139390761Y-97972571D02*
X139057428Y-97972571D01*
X138914571Y-98496380D02*
X139390761Y-98496380D01*
X139390761Y-97496380D01*
X138914571Y-97496380D01*
X138486000Y-98496380D02*
X138486000Y-97496380D01*
X137914571Y-98496380D01*
X137914571Y-97496380D01*
X126221619Y-102814380D02*
X126221619Y-101814380D01*
X125745428Y-102814380D02*
X125745428Y-101814380D01*
X125174000Y-102814380D01*
X125174000Y-101814380D01*
X124840666Y-101814380D02*
X124269238Y-101814380D01*
X124554952Y-102814380D02*
X124554952Y-101814380D01*
X124174000Y-102909619D02*
X123412095Y-102909619D01*
X122602571Y-102719142D02*
X122650190Y-102766761D01*
X122793047Y-102814380D01*
X122888285Y-102814380D01*
X123031142Y-102766761D01*
X123126380Y-102671523D01*
X123174000Y-102576285D01*
X123221619Y-102385809D01*
X123221619Y-102242952D01*
X123174000Y-102052476D01*
X123126380Y-101957238D01*
X123031142Y-101862000D01*
X122888285Y-101814380D01*
X122793047Y-101814380D01*
X122650190Y-101862000D01*
X122602571Y-101909619D01*
X121697809Y-102814380D02*
X122174000Y-102814380D01*
X122174000Y-101814380D01*
X121364476Y-102814380D02*
X121364476Y-101814380D01*
X120793047Y-102814380D02*
X121221619Y-102242952D01*
X120793047Y-101814380D02*
X121364476Y-102385809D01*
X120602571Y-102909619D02*
X119840666Y-102909619D01*
X119602571Y-102290571D02*
X119269238Y-102290571D01*
X119126380Y-102814380D02*
X119602571Y-102814380D01*
X119602571Y-101814380D01*
X119126380Y-101814380D01*
X118697809Y-102814380D02*
X118697809Y-101814380D01*
X118126380Y-102814380D01*
X118126380Y-101814380D01*
X163424952Y-109672380D02*
X163424952Y-108672380D01*
X162758285Y-108672380D02*
X162567809Y-108672380D01*
X162472571Y-108720000D01*
X162377333Y-108815238D01*
X162329714Y-109005714D01*
X162329714Y-109339047D01*
X162377333Y-109529523D01*
X162472571Y-109624761D01*
X162567809Y-109672380D01*
X162758285Y-109672380D01*
X162853523Y-109624761D01*
X162948761Y-109529523D01*
X162996380Y-109339047D01*
X162996380Y-109005714D01*
X162948761Y-108815238D01*
X162853523Y-108720000D01*
X162758285Y-108672380D01*
X162139238Y-109767619D02*
X161377333Y-109767619D01*
X161139238Y-109148571D02*
X160805904Y-109148571D01*
X160663047Y-109672380D02*
X161139238Y-109672380D01*
X161139238Y-108672380D01*
X160663047Y-108672380D01*
X160234476Y-109672380D02*
X160234476Y-108672380D01*
X159663047Y-109672380D01*
X159663047Y-108672380D01*
D14*
X100206000Y-74438000D02*
X97406000Y-74438000D01*
X97406000Y-74438000D02*
X97406000Y-76438000D01*
X97406000Y-76438000D02*
X100206000Y-76438000D01*
X100206000Y-76438000D02*
X100206000Y-74438000D01*
X118856000Y-116970000D02*
X118856000Y-114170000D01*
X118856000Y-114170000D02*
X116856000Y-114170000D01*
X116856000Y-114170000D02*
X116856000Y-116970000D01*
X116856000Y-116970000D02*
X118856000Y-116970000D01*
X118856000Y-124844000D02*
X118856000Y-122044000D01*
X118856000Y-122044000D02*
X116856000Y-122044000D01*
X116856000Y-122044000D02*
X116856000Y-124844000D01*
X116856000Y-124844000D02*
X118856000Y-124844000D01*
X123574000Y-105648000D02*
X123574000Y-103648000D01*
X120774000Y-105648000D02*
X123574000Y-105648000D01*
X120774000Y-103648000D02*
X120774000Y-105648000D01*
X123574000Y-103648000D02*
X120774000Y-103648000D01*
X163198000Y-110760000D02*
X160398000Y-110760000D01*
X160398000Y-110760000D02*
X160398000Y-112760000D01*
X160398000Y-112760000D02*
X163198000Y-112760000D01*
X163198000Y-112760000D02*
X163198000Y-110760000D01*
X140332000Y-99330000D02*
X140332000Y-101330000D01*
X143132000Y-99330000D02*
X140332000Y-99330000D01*
X143132000Y-101330000D02*
X143132000Y-99330000D01*
X140332000Y-101330000D02*
X143132000Y-101330000D01*
X130172000Y-110220000D02*
X132972000Y-110220000D01*
X132972000Y-110220000D02*
X132972000Y-108220000D01*
X132972000Y-108220000D02*
X130172000Y-108220000D01*
X130172000Y-108220000D02*
X130172000Y-110220000D01*
D13*
X96083333Y-74636380D02*
X96083333Y-75350666D01*
X96130952Y-75493523D01*
X96226190Y-75588761D01*
X96369047Y-75636380D01*
X96464285Y-75636380D01*
X95607142Y-75636380D02*
X95607142Y-74636380D01*
X95226190Y-74636380D01*
X95130952Y-74684000D01*
X95083333Y-74731619D01*
X95035714Y-74826857D01*
X95035714Y-74969714D01*
X95083333Y-75064952D01*
X95130952Y-75112571D01*
X95226190Y-75160190D01*
X95607142Y-75160190D01*
X94702380Y-74636380D02*
X94035714Y-74636380D01*
X94464285Y-75636380D01*
X100393047Y-73604380D02*
X100393047Y-72604380D01*
X99726380Y-72604380D02*
X99535904Y-72604380D01*
X99440666Y-72652000D01*
X99345428Y-72747238D01*
X99297809Y-72937714D01*
X99297809Y-73271047D01*
X99345428Y-73461523D01*
X99440666Y-73556761D01*
X99535904Y-73604380D01*
X99726380Y-73604380D01*
X99821619Y-73556761D01*
X99916857Y-73461523D01*
X99964476Y-73271047D01*
X99964476Y-72937714D01*
X99916857Y-72747238D01*
X99821619Y-72652000D01*
X99726380Y-72604380D01*
X99107333Y-73699619D02*
X98345428Y-73699619D01*
X97535904Y-73604380D02*
X97869238Y-73128190D01*
X98107333Y-73604380D02*
X98107333Y-72604380D01*
X97726380Y-72604380D01*
X97631142Y-72652000D01*
X97583523Y-72699619D01*
X97535904Y-72794857D01*
X97535904Y-72937714D01*
X97583523Y-73032952D01*
X97631142Y-73080571D01*
X97726380Y-73128190D01*
X98107333Y-73128190D01*
X97154952Y-73556761D02*
X97012095Y-73604380D01*
X96774000Y-73604380D01*
X96678761Y-73556761D01*
X96631142Y-73509142D01*
X96583523Y-73413904D01*
X96583523Y-73318666D01*
X96631142Y-73223428D01*
X96678761Y-73175809D01*
X96774000Y-73128190D01*
X96964476Y-73080571D01*
X97059714Y-73032952D01*
X97107333Y-72985333D01*
X97154952Y-72890095D01*
X97154952Y-72794857D01*
X97107333Y-72699619D01*
X97059714Y-72652000D01*
X96964476Y-72604380D01*
X96726380Y-72604380D01*
X96583523Y-72652000D01*
X96297809Y-72604380D02*
X95726380Y-72604380D01*
X96012095Y-73604380D02*
X96012095Y-72604380D01*
X95631142Y-73699619D02*
X94869238Y-73699619D01*
X94631142Y-73080571D02*
X94297809Y-73080571D01*
X94154952Y-73604380D02*
X94631142Y-73604380D01*
X94631142Y-72604380D01*
X94154952Y-72604380D01*
X93726380Y-73604380D02*
X93726380Y-72604380D01*
X93154952Y-73604380D01*
X93154952Y-72604380D01*
X117308380Y-118038666D02*
X118022666Y-118038666D01*
X118165523Y-117991047D01*
X118260761Y-117895809D01*
X118308380Y-117752952D01*
X118308380Y-117657714D01*
X118308380Y-118514857D02*
X117308380Y-118514857D01*
X117308380Y-118895809D01*
X117356000Y-118991047D01*
X117403619Y-119038666D01*
X117498857Y-119086285D01*
X117641714Y-119086285D01*
X117736952Y-119038666D01*
X117784571Y-118991047D01*
X117832190Y-118895809D01*
X117832190Y-118514857D01*
X117308380Y-119991047D02*
X117308380Y-119514857D01*
X117784571Y-119467238D01*
X117736952Y-119514857D01*
X117689333Y-119610095D01*
X117689333Y-119848190D01*
X117736952Y-119943428D01*
X117784571Y-119991047D01*
X117879809Y-120038666D01*
X118117904Y-120038666D01*
X118213142Y-119991047D01*
X118260761Y-119943428D01*
X118308380Y-119848190D01*
X118308380Y-119610095D01*
X118260761Y-119514857D01*
X118213142Y-119467238D01*
X117308380Y-126166666D02*
X118022666Y-126166666D01*
X118165523Y-126119047D01*
X118260761Y-126023809D01*
X118308380Y-125880952D01*
X118308380Y-125785714D01*
X118308380Y-126642857D02*
X117308380Y-126642857D01*
X117308380Y-127023809D01*
X117356000Y-127119047D01*
X117403619Y-127166666D01*
X117498857Y-127214285D01*
X117641714Y-127214285D01*
X117736952Y-127166666D01*
X117784571Y-127119047D01*
X117832190Y-127023809D01*
X117832190Y-126642857D01*
X117308380Y-128071428D02*
X117308380Y-127880952D01*
X117356000Y-127785714D01*
X117403619Y-127738095D01*
X117546476Y-127642857D01*
X117736952Y-127595238D01*
X118117904Y-127595238D01*
X118213142Y-127642857D01*
X118260761Y-127690476D01*
X118308380Y-127785714D01*
X118308380Y-127976190D01*
X118260761Y-128071428D01*
X118213142Y-128119047D01*
X118117904Y-128166666D01*
X117879809Y-128166666D01*
X117784571Y-128119047D01*
X117736952Y-128071428D01*
X117689333Y-127976190D01*
X117689333Y-127785714D01*
X117736952Y-127690476D01*
X117784571Y-127642857D01*
X117879809Y-127595238D01*
X126309333Y-104100380D02*
X126309333Y-104814666D01*
X126356952Y-104957523D01*
X126452190Y-105052761D01*
X126595047Y-105100380D01*
X126690285Y-105100380D01*
X125833142Y-105100380D02*
X125833142Y-104100380D01*
X125452190Y-104100380D01*
X125356952Y-104148000D01*
X125309333Y-104195619D01*
X125261714Y-104290857D01*
X125261714Y-104433714D01*
X125309333Y-104528952D01*
X125356952Y-104576571D01*
X125452190Y-104624190D01*
X125833142Y-104624190D01*
X124309333Y-105100380D02*
X124880761Y-105100380D01*
X124595047Y-105100380D02*
X124595047Y-104100380D01*
X124690285Y-104243238D01*
X124785523Y-104338476D01*
X124880761Y-104386095D01*
X166187333Y-111212380D02*
X166187333Y-111926666D01*
X166234952Y-112069523D01*
X166330190Y-112164761D01*
X166473047Y-112212380D01*
X166568285Y-112212380D01*
X165711142Y-112212380D02*
X165711142Y-111212380D01*
X165330190Y-111212380D01*
X165234952Y-111260000D01*
X165187333Y-111307619D01*
X165139714Y-111402857D01*
X165139714Y-111545714D01*
X165187333Y-111640952D01*
X165234952Y-111688571D01*
X165330190Y-111736190D01*
X165711142Y-111736190D01*
X164758761Y-111307619D02*
X164711142Y-111260000D01*
X164615904Y-111212380D01*
X164377809Y-111212380D01*
X164282571Y-111260000D01*
X164234952Y-111307619D01*
X164187333Y-111402857D01*
X164187333Y-111498095D01*
X164234952Y-111640952D01*
X164806380Y-112212380D01*
X164187333Y-112212380D01*
X145867333Y-99782380D02*
X145867333Y-100496666D01*
X145914952Y-100639523D01*
X146010190Y-100734761D01*
X146153047Y-100782380D01*
X146248285Y-100782380D01*
X145391142Y-100782380D02*
X145391142Y-99782380D01*
X145010190Y-99782380D01*
X144914952Y-99830000D01*
X144867333Y-99877619D01*
X144819714Y-99972857D01*
X144819714Y-100115714D01*
X144867333Y-100210952D01*
X144914952Y-100258571D01*
X145010190Y-100306190D01*
X145391142Y-100306190D01*
X144486380Y-99782380D02*
X143867333Y-99782380D01*
X144200666Y-100163333D01*
X144057809Y-100163333D01*
X143962571Y-100210952D01*
X143914952Y-100258571D01*
X143867333Y-100353809D01*
X143867333Y-100591904D01*
X143914952Y-100687142D01*
X143962571Y-100734761D01*
X144057809Y-100782380D01*
X144343523Y-100782380D01*
X144438761Y-100734761D01*
X144486380Y-100687142D01*
X135707333Y-108672380D02*
X135707333Y-109386666D01*
X135754952Y-109529523D01*
X135850190Y-109624761D01*
X135993047Y-109672380D01*
X136088285Y-109672380D01*
X135231142Y-109672380D02*
X135231142Y-108672380D01*
X134850190Y-108672380D01*
X134754952Y-108720000D01*
X134707333Y-108767619D01*
X134659714Y-108862857D01*
X134659714Y-109005714D01*
X134707333Y-109100952D01*
X134754952Y-109148571D01*
X134850190Y-109196190D01*
X135231142Y-109196190D01*
X133802571Y-109005714D02*
X133802571Y-109672380D01*
X134040666Y-108624761D02*
X134278761Y-109339047D01*
X133659714Y-109339047D01*
M02*
